<svg viewBox="0 0 480 200" xmlns="http://www.w3.org/2000/svg" role="img" aria-labelledby="cdg-illus-title cdg-illus-desc">
  <title id="cdg-illus-title">Comparaison budget prévisionnel et réalisations sur quatre périodes</title>
  <desc id="cdg-illus-desc">Quatre paires de barres, chacune opposant un budget prévisionnel en contour à sa réalisation effective pleine, la dernière période dépassant l'objectif étant mise en évidence en or.</desc>
  <defs>
    <filter id="cdg-shadow" x="-30%" y="-30%" width="160%" height="160%">
      <feDropShadow dx="0" dy="8" stdDeviation="12" flood-color="#0a1830" flood-opacity="0.35" />
    </filter>
    <filter id="cdg-glow" x="-100%" y="-100%" width="300%" height="300%">
      <feGaussianBlur stdDeviation="24" />
    </filter>
  </defs>

  <circle cx="240" cy="100" r="110" fill="#c9a84c" opacity="0.15" filter="url(#cdg-glow)" />

  <g filter="url(#cdg-shadow)">
    <rect x="40" y="20" width="400" height="160" rx="16" fill="#ffffff" />
  </g>

  <line x1="80" y1="155" x2="390" y2="155" stroke="#e2e8f0" stroke-width="2" />

  <rect x="95" y="105" width="18" height="50" rx="3" fill="none" stroke="#94a3b8" stroke-width="2" />
  <rect x="117" y="95" width="18" height="60" rx="3" fill="#1e3a5f" />

  <rect x="175" y="95" width="18" height="60" rx="3" fill="none" stroke="#94a3b8" stroke-width="2" />
  <rect x="197" y="80" width="18" height="75" rx="3" fill="#1e3a5f" />

  <rect x="255" y="110" width="18" height="45" rx="3" fill="none" stroke="#94a3b8" stroke-width="2" />
  <rect x="277" y="100" width="18" height="55" rx="3" fill="#1e3a5f" />

  <rect x="335" y="85" width="18" height="70" rx="3" fill="none" stroke="#94a3b8" stroke-width="2" />
  <rect x="357" y="60" width="18" height="95" rx="3" fill="#c9a84c" />
</svg>
